<?xml version="1.0" encoding="UTF-8"?>
<svg width="82px" height="98px" viewBox="0 0 82 98" version="1.1" xmlns="http://www.w3.org/2000/svg" xmlns:xlink="http://www.w3.org/1999/xlink">
    <!-- Generator: Sketch 48.2 (47327) - http://www.bohemiancoding.com/sketch -->
    <title>noun_19512</title>
    <desc>Created with Sketch.</desc>
    <defs></defs>
    <g id="Page-1" stroke="none" stroke-width="1" fill="none" fill-rule="evenodd">
        <g id="noun_19512" fill="#057EE6" fill-rule="nonzero">
            <path d="M81.913,14.322 L69.863,0.73 C69.863,0.73 62.577,6.334 55.011,6.334 C47.444,6.335 41,0.73 41,0.73 C41,0.73 34.555,6.334 26.989,6.334 C19.422,6.334 12.137,0.73 12.137,0.73 L0.086,14.322 C0.086,14.322 6.3,17.684 6.3,25.525 C6.3,33.365 0.647,35.199 0.647,51.872 C0.647,82.979 41,97.27 41,97.27 C41,97.27 81.353,82.979 81.353,51.873 C81.353,35.2 75.7,33.366 75.7,25.526 C75.699,17.684 81.913,14.322 81.913,14.322 Z M32.344,66.558 L32.34,66.554 L32.336,66.558 L19.684,53.904 L24.826,48.762 L32.341,56.276 L57.175,31.442 L62.317,36.585 L32.344,66.558 Z" id="Shape"></path>
        </g>
    </g>
</svg>